<mxfile host="app.diagrams.net" modified="2023-04-12T22:07:48.195Z" agent="Mozilla/5.0 (Windows NT 10.0; Win64; x64) AppleWebKit/537.36 (KHTML, like Gecko) Chrome/111.0.0.0 Safari/537.36 OPR/97.0.0.0" etag="tZ6Hts94FYO8vFK7z8g8" version="21.1.5" type="device">
  <diagram name="PÃ¡gina-1" id="IIy5YJnQC1UhlpICEalw">
    <mxGraphModel dx="1393" dy="758" grid="1" gridSize="10" guides="1" tooltips="1" connect="1" arrows="1" fold="1" page="1" pageScale="1" pageWidth="827" pageHeight="1169" math="0" shadow="0">
      <root>
        <mxCell id="0" />
        <mxCell id="1" parent="0" />
        <mxCell id="mvMwmNf_pqnyCYaCnH44-17" style="edgeStyle=orthogonalEdgeStyle;rounded=0;orthogonalLoop=1;jettySize=auto;html=1;exitX=0.5;exitY=0;exitDx=0;exitDy=0;entryX=0.5;entryY=1;entryDx=0;entryDy=0;endArrow=none;endFill=0;startSize=20;startArrow=diamondThin;startFill=1;" edge="1" parent="1" source="mvMwmNf_pqnyCYaCnH44-1" target="mvMwmNf_pqnyCYaCnH44-9">
          <mxGeometry relative="1" as="geometry" />
        </mxCell>
        <mxCell id="mvMwmNf_pqnyCYaCnH44-1" value="cliente&lt;br&gt;" style="swimlane;fontStyle=1;align=center;verticalAlign=top;childLayout=stackLayout;horizontal=1;startSize=26;horizontalStack=0;resizeParent=1;resizeParentMax=0;resizeLast=0;collapsible=1;marginBottom=0;whiteSpace=wrap;html=1;" vertex="1" parent="1">
          <mxGeometry x="510" y="450" width="160" height="138" as="geometry" />
        </mxCell>
        <mxCell id="mvMwmNf_pqnyCYaCnH44-2" value="- pedidos: List&amp;lt;Pedidos&amp;gt;" style="text;strokeColor=none;fillColor=none;align=left;verticalAlign=top;spacingLeft=4;spacingRight=4;overflow=hidden;rotatable=0;points=[[0,0.5],[1,0.5]];portConstraint=eastwest;whiteSpace=wrap;html=1;" vertex="1" parent="mvMwmNf_pqnyCYaCnH44-1">
          <mxGeometry y="26" width="160" height="26" as="geometry" />
        </mxCell>
        <mxCell id="mvMwmNf_pqnyCYaCnH44-25" value="- loja" style="text;strokeColor=none;fillColor=none;align=left;verticalAlign=top;spacingLeft=4;spacingRight=4;overflow=hidden;rotatable=0;points=[[0,0.5],[1,0.5]];portConstraint=eastwest;whiteSpace=wrap;html=1;" vertex="1" parent="mvMwmNf_pqnyCYaCnH44-1">
          <mxGeometry y="52" width="160" height="26" as="geometry" />
        </mxCell>
        <mxCell id="mvMwmNf_pqnyCYaCnH44-3" value="" style="line;strokeWidth=1;fillColor=none;align=left;verticalAlign=middle;spacingTop=-1;spacingLeft=3;spacingRight=3;rotatable=0;labelPosition=right;points=[];portConstraint=eastwest;strokeColor=inherit;" vertex="1" parent="mvMwmNf_pqnyCYaCnH44-1">
          <mxGeometry y="78" width="160" height="8" as="geometry" />
        </mxCell>
        <mxCell id="mvMwmNf_pqnyCYaCnH44-4" value="+ fazerPedido" style="text;strokeColor=none;fillColor=none;align=left;verticalAlign=top;spacingLeft=4;spacingRight=4;overflow=hidden;rotatable=0;points=[[0,0.5],[1,0.5]];portConstraint=eastwest;whiteSpace=wrap;html=1;" vertex="1" parent="mvMwmNf_pqnyCYaCnH44-1">
          <mxGeometry y="86" width="160" height="26" as="geometry" />
        </mxCell>
        <mxCell id="mvMwmNf_pqnyCYaCnH44-27" value="- historicoPedidos" style="text;strokeColor=none;fillColor=none;align=left;verticalAlign=top;spacingLeft=4;spacingRight=4;overflow=hidden;rotatable=0;points=[[0,0.5],[1,0.5]];portConstraint=eastwest;whiteSpace=wrap;html=1;" vertex="1" parent="mvMwmNf_pqnyCYaCnH44-1">
          <mxGeometry y="112" width="160" height="26" as="geometry" />
        </mxCell>
        <mxCell id="mvMwmNf_pqnyCYaCnH44-5" value="produto" style="swimlane;fontStyle=1;align=center;verticalAlign=top;childLayout=stackLayout;horizontal=1;startSize=26;horizontalStack=0;resizeParent=1;resizeParentMax=0;resizeLast=0;collapsible=1;marginBottom=0;whiteSpace=wrap;html=1;" vertex="1" parent="1">
          <mxGeometry x="130" y="150" width="160" height="86" as="geometry" />
        </mxCell>
        <mxCell id="mvMwmNf_pqnyCYaCnH44-6" value="- nome: String" style="text;strokeColor=none;fillColor=none;align=left;verticalAlign=top;spacingLeft=4;spacingRight=4;overflow=hidden;rotatable=0;points=[[0,0.5],[1,0.5]];portConstraint=eastwest;whiteSpace=wrap;html=1;" vertex="1" parent="mvMwmNf_pqnyCYaCnH44-5">
          <mxGeometry y="26" width="160" height="26" as="geometry" />
        </mxCell>
        <mxCell id="mvMwmNf_pqnyCYaCnH44-7" value="" style="line;strokeWidth=1;fillColor=none;align=left;verticalAlign=middle;spacingTop=-1;spacingLeft=3;spacingRight=3;rotatable=0;labelPosition=right;points=[];portConstraint=eastwest;strokeColor=inherit;" vertex="1" parent="mvMwmNf_pqnyCYaCnH44-5">
          <mxGeometry y="52" width="160" height="8" as="geometry" />
        </mxCell>
        <mxCell id="mvMwmNf_pqnyCYaCnH44-8" value="+ method(type): type" style="text;strokeColor=none;fillColor=none;align=left;verticalAlign=top;spacingLeft=4;spacingRight=4;overflow=hidden;rotatable=0;points=[[0,0.5],[1,0.5]];portConstraint=eastwest;whiteSpace=wrap;html=1;" vertex="1" parent="mvMwmNf_pqnyCYaCnH44-5">
          <mxGeometry y="60" width="160" height="26" as="geometry" />
        </mxCell>
        <mxCell id="mvMwmNf_pqnyCYaCnH44-22" style="edgeStyle=orthogonalEdgeStyle;rounded=0;orthogonalLoop=1;jettySize=auto;html=1;exitX=0.044;exitY=1;exitDx=0;exitDy=0;entryX=1;entryY=0.179;entryDx=0;entryDy=0;entryPerimeter=0;exitPerimeter=0;endArrow=diamondThin;endFill=0;startSize=20;endSize=20;" edge="1" parent="1" source="mvMwmNf_pqnyCYaCnH44-12" target="mvMwmNf_pqnyCYaCnH44-13">
          <mxGeometry relative="1" as="geometry">
            <Array as="points">
              <mxPoint x="517" y="330" />
              <mxPoint x="370" y="330" />
              <mxPoint x="370" y="475" />
              <mxPoint x="330" y="475" />
              <mxPoint x="330" y="440" />
            </Array>
          </mxGeometry>
        </mxCell>
        <mxCell id="mvMwmNf_pqnyCYaCnH44-9" value="pedido" style="swimlane;fontStyle=1;align=center;verticalAlign=top;childLayout=stackLayout;horizontal=1;startSize=26;horizontalStack=0;resizeParent=1;resizeParentMax=0;resizeLast=0;collapsible=1;marginBottom=0;whiteSpace=wrap;html=1;" vertex="1" parent="1">
          <mxGeometry x="510" y="150" width="160" height="86" as="geometry" />
        </mxCell>
        <mxCell id="mvMwmNf_pqnyCYaCnH44-10" value="-items: Lista&amp;lt;Produto&amp;gt;" style="text;strokeColor=none;fillColor=none;align=left;verticalAlign=top;spacingLeft=4;spacingRight=4;overflow=hidden;rotatable=0;points=[[0,0.5],[1,0.5]];portConstraint=eastwest;whiteSpace=wrap;html=1;" vertex="1" parent="mvMwmNf_pqnyCYaCnH44-9">
          <mxGeometry y="26" width="160" height="26" as="geometry" />
        </mxCell>
        <mxCell id="mvMwmNf_pqnyCYaCnH44-11" value="" style="line;strokeWidth=1;fillColor=none;align=left;verticalAlign=middle;spacingTop=-1;spacingLeft=3;spacingRight=3;rotatable=0;labelPosition=right;points=[];portConstraint=eastwest;strokeColor=inherit;" vertex="1" parent="mvMwmNf_pqnyCYaCnH44-9">
          <mxGeometry y="52" width="160" height="8" as="geometry" />
        </mxCell>
        <mxCell id="mvMwmNf_pqnyCYaCnH44-12" value="+ exibirProdutos: void()" style="text;strokeColor=none;fillColor=none;align=left;verticalAlign=top;spacingLeft=4;spacingRight=4;overflow=hidden;rotatable=0;points=[[0,0.5],[1,0.5]];portConstraint=eastwest;whiteSpace=wrap;html=1;" vertex="1" parent="mvMwmNf_pqnyCYaCnH44-9">
          <mxGeometry y="60" width="160" height="26" as="geometry" />
        </mxCell>
        <mxCell id="mvMwmNf_pqnyCYaCnH44-21" style="edgeStyle=orthogonalEdgeStyle;rounded=0;orthogonalLoop=1;jettySize=auto;html=1;exitX=0.5;exitY=0;exitDx=0;exitDy=0;entryX=0.475;entryY=1;entryDx=0;entryDy=0;entryPerimeter=0;endArrow=none;endFill=0;startArrow=diamondThin;startFill=0;startSize=20;" edge="1" parent="1" source="mvMwmNf_pqnyCYaCnH44-13" target="mvMwmNf_pqnyCYaCnH44-8">
          <mxGeometry relative="1" as="geometry" />
        </mxCell>
        <mxCell id="mvMwmNf_pqnyCYaCnH44-13" value="loja&lt;br&gt;" style="swimlane;fontStyle=1;align=center;verticalAlign=top;childLayout=stackLayout;horizontal=1;startSize=26;horizontalStack=0;resizeParent=1;resizeParentMax=0;resizeLast=0;collapsible=1;marginBottom=0;whiteSpace=wrap;html=1;" vertex="1" parent="1">
          <mxGeometry x="120" y="420" width="160" height="138" as="geometry" />
        </mxCell>
        <mxCell id="mvMwmNf_pqnyCYaCnH44-14" value="- pedidos&lt;br&gt;" style="text;strokeColor=none;fillColor=none;align=left;verticalAlign=top;spacingLeft=4;spacingRight=4;overflow=hidden;rotatable=0;points=[[0,0.5],[1,0.5]];portConstraint=eastwest;whiteSpace=wrap;html=1;" vertex="1" parent="mvMwmNf_pqnyCYaCnH44-13">
          <mxGeometry y="26" width="160" height="26" as="geometry" />
        </mxCell>
        <mxCell id="mvMwmNf_pqnyCYaCnH44-20" value="- produtos" style="text;strokeColor=none;fillColor=none;align=left;verticalAlign=top;spacingLeft=4;spacingRight=4;overflow=hidden;rotatable=0;points=[[0,0.5],[1,0.5]];portConstraint=eastwest;whiteSpace=wrap;html=1;" vertex="1" parent="mvMwmNf_pqnyCYaCnH44-13">
          <mxGeometry y="52" width="160" height="26" as="geometry" />
        </mxCell>
        <mxCell id="mvMwmNf_pqnyCYaCnH44-15" value="" style="line;strokeWidth=1;fillColor=none;align=left;verticalAlign=middle;spacingTop=-1;spacingLeft=3;spacingRight=3;rotatable=0;labelPosition=right;points=[];portConstraint=eastwest;strokeColor=inherit;" vertex="1" parent="mvMwmNf_pqnyCYaCnH44-13">
          <mxGeometry y="78" width="160" height="8" as="geometry" />
        </mxCell>
        <mxCell id="mvMwmNf_pqnyCYaCnH44-26" value="+ criarProduto" style="text;strokeColor=none;fillColor=none;align=left;verticalAlign=top;spacingLeft=4;spacingRight=4;overflow=hidden;rotatable=0;points=[[0,0.5],[1,0.5]];portConstraint=eastwest;whiteSpace=wrap;html=1;" vertex="1" parent="mvMwmNf_pqnyCYaCnH44-13">
          <mxGeometry y="86" width="160" height="26" as="geometry" />
        </mxCell>
        <mxCell id="mvMwmNf_pqnyCYaCnH44-16" value="+ fazerProduto" style="text;strokeColor=none;fillColor=none;align=left;verticalAlign=top;spacingLeft=4;spacingRight=4;overflow=hidden;rotatable=0;points=[[0,0.5],[1,0.5]];portConstraint=eastwest;whiteSpace=wrap;html=1;" vertex="1" parent="mvMwmNf_pqnyCYaCnH44-13">
          <mxGeometry y="112" width="160" height="26" as="geometry" />
        </mxCell>
        <mxCell id="mvMwmNf_pqnyCYaCnH44-18" style="edgeStyle=orthogonalEdgeStyle;rounded=0;orthogonalLoop=1;jettySize=auto;html=1;exitX=0;exitY=0.5;exitDx=0;exitDy=0;entryX=1;entryY=0.5;entryDx=0;entryDy=0;endArrow=none;endFill=0;startArrow=diamondThin;startFill=0;startSize=20;" edge="1" parent="1" source="mvMwmNf_pqnyCYaCnH44-12" target="mvMwmNf_pqnyCYaCnH44-6">
          <mxGeometry relative="1" as="geometry" />
        </mxCell>
        <mxCell id="mvMwmNf_pqnyCYaCnH44-24" style="edgeStyle=orthogonalEdgeStyle;rounded=0;orthogonalLoop=1;jettySize=auto;html=1;exitX=0;exitY=0.5;exitDx=0;exitDy=0;entryX=1;entryY=0.5;entryDx=0;entryDy=0;endArrow=open;endFill=0;dashed=1;dashPattern=8 8;" edge="1" parent="1" source="mvMwmNf_pqnyCYaCnH44-4" target="mvMwmNf_pqnyCYaCnH44-16">
          <mxGeometry relative="1" as="geometry" />
        </mxCell>
      </root>
    </mxGraphModel>
  </diagram>
</mxfile>
